# 3ds Max Wavefront OBJ Exporter v0.97b - (c)2007 guruware
# File Created: 26.06.2011 17:54:21

mtllib bamboo_single_1.mtl

#
# object bamboo_01
#

v  0.4664 0.0000 0.0000
v  0.2332 0.4039 0.0000
v  0.1938 0.3357 8.1481
v  0.3877 0.0000 8.1481
v  -0.2332 0.4039 0.0000
v  -0.1938 0.3357 8.1481
v  -0.4664 -0.0000 0.0000
v  -0.3877 -0.0000 8.1481
v  -0.2332 -0.4039 0.0000
v  -0.1938 -0.3357 8.1481
v  0.2332 -0.4039 0.0000
v  0.1938 -0.3357 8.1481
v  0.1849 0.3202 16.2962
v  0.3698 0.0000 16.2962
v  -0.1849 0.3202 16.2962
v  -0.3698 -0.0000 16.2962
v  -0.1849 -0.3202 16.2962
v  0.1849 -0.3202 16.2962
v  0.1737 0.3008 24.4443
v  0.3473 0.0000 24.4443
v  -0.1737 0.3008 24.4443
v  -0.3473 -0.0000 24.4443
v  -0.1737 -0.3008 24.4443
v  0.1737 -0.3008 24.4443
v  0.1136 0.1968 32.5924
v  0.2272 0.0000 32.5924
v  -0.1136 0.1968 32.5924
v  -0.2272 -0.0000 32.5924
v  -0.1136 -0.1968 32.5924
v  0.1136 -0.1968 32.5924
v  -0.0000 -0.0000 41.6829
v  -4.5593 4.3224 12.0810
v  -4.5593 0.5016 8.0841
v  0.0584 -0.1716 9.2897
v  -0.9770 3.6492 13.2866
v  2.6054 0.5016 8.0841
v  2.6054 4.3224 12.0810
v  -4.5593 9.7296 13.2365
v  -2.3516 9.0565 14.4422
v  2.6054 9.7296 13.2365
v  6.2864 0.3222 13.5486
v  3.5251 2.9630 9.5517
v  -0.1530 0.0910 10.7574
v  3.3239 -1.8015 14.7543
v  -1.4269 -2.2151 9.5517
v  1.3344 -4.8558 13.5486
v  10.1942 -3.4150 14.7042
v  8.1818 -4.5453 15.9098
v  5.2423 -8.5930 14.7042
v  6.2551 -1.6666 18.2807
v  4.3411 1.6402 14.2838
v  0.0074 -0.0904 15.4894
v  2.8174 -2.8785 19.4863
v  -1.8599 -1.9489 14.2838
v  0.0541 -5.2557 18.2807
v  8.9638 -6.3464 19.4362
v  6.7158 -6.8698 20.6419
v  2.7629 -9.9356 19.4362
v  -0.9438 6.3700 14.8397
v  -3.2472 3.3215 10.8428
v  0.0313 0.0007 12.0484
v  1.5086 3.6733 16.0453
v  2.4693 -0.9977 10.8428
v  4.7727 2.0507 14.8397
v  2.3159 10.6842 15.9953
v  3.6716 8.8162 17.2009
v  8.0324 6.3650 15.9953
v  -5.6167 -3.3729 19.7484
v  -1.9039 -4.2752 15.7514
v  -0.1594 0.0530 16.9571
v  -4.1166 -0.0508 20.9540
v  -0.2120 2.6870 15.7514
v  -3.9248 3.5892 19.7484
v  -10.8710 -2.0960 20.9039
v  -9.6955 -0.1097 22.1095
v  -9.1791 4.8661 20.9039
v  -6.1540 -0.3132 27.2391
v  -3.3030 -2.8569 23.2422
v  0.2735 0.1406 24.4478
v  -3.2668 1.9117 28.4447
v  1.4669 2.4893 23.2422
v  -1.3842 5.0330 27.2391
v  -10.1888 3.2866 28.3947
v  -8.2167 4.4858 29.6003
v  -5.4189 8.6328 28.3947
v  3.0948 -6.0958 30.6868
v  4.3218 -1.4512 27.9489
v  -0.0660 0.0187 29.2966
v  -0.2920 -4.8903 32.0345
v  -2.6053 0.3788 27.9489
v  -3.8323 -4.2658 30.6868
v  1.6870 -11.4249 30.2484
v  -0.3708 -10.5706 31.5962
v  -5.2401 -9.5949 30.2484
v  -0.9873 6.1307 25.9481
v  -3.3714 3.1450 21.9511
v  -0.1830 -0.2624 23.1568
v  1.3921 3.3693 27.1537
v  2.2274 -1.3257 21.9511
v  4.6115 1.6599 25.9481
v  2.3868 10.3561 27.1036
v  3.6920 8.4524 28.3092
v  7.9856 5.8853 27.1036
v  5.6356 3.9757 31.9778
v  0.8670 4.5567 29.2399
v  0.0102 0.0093 30.5877
v  4.9041 0.4559 33.3256
v  0.0003 -2.5554 29.2399
v  4.7690 -3.1365 31.9778
v  11.1071 3.3089 31.5395
v  10.5418 1.1537 32.8872
v  10.2404 -3.8032 31.5395
v  -1.0063 -6.8257 35.4188
v  2.8579 -3.9716 32.6809
v  0.3561 -0.0788 34.0286
v  -2.8930 -3.7656 36.7665
v  -1.3989 1.7916 32.6809
v  -5.2630 -1.0625 35.4188
v  -5.4400 -10.1005 34.9804
v  -6.5100 -8.1461 36.3282
v  -9.6967 -4.3373 34.9804
v  -2.1058 -5.7343 8.6400
v  1.4148 -4.2497 4.6431
v  0.2409 0.2667 5.8487
v  -2.8774 -2.1718 9.8456
v  -1.3690 2.3521 4.6431
v  -4.8896 0.8676 8.6400
v  -7.0882 -7.8352 9.7956
v  -7.3257 -5.5393 11.0012
v  -9.8720 -1.2333 9.7956
v  -3.9869 -4.9984 24.4804
v  -0.1813 -4.6578 20.4835
v  0.0776 0.0015 21.6891
v  -3.6357 -1.3702 25.6860
v  -0.8199 2.4784 20.4835
v  -4.6254 2.1379 24.4804
v  -9.3726 -5.4803 25.6359
v  -8.8989 -3.2213 26.8416
v  -10.0112 1.6560 25.6359
v  -4.9945 4.8075 36.8865
v  -4.7091 0.0121 34.1486
v  -0.0817 -0.0135 35.4963
v  -1.4006 4.7204 38.2342
v  2.4430 0.4378 34.1486
v  2.1576 5.2332 36.8865
v  -5.3220 10.3097 36.4481
v  -3.1003 10.1410 37.7959
v  1.8301 10.7354 36.4481
v  0.5951 6.7757 29.2191
v  -3.0256 3.6185 26.4812
v  -0.2172 -0.0593 27.8289
v  2.7231 3.8782 30.5668
v  1.6833 -1.7816 26.4812
v  5.3040 1.3757 29.2191
v  4.7494 10.3983 28.7807
v  5.9740 8.5369 30.1285
v  9.4583 4.9982 28.7807
v  6.0108 -1.8617 21.0394
v  4.2184 1.5126 17.0425
v  -0.1755 -0.0591 18.2481
v  2.5312 -2.9477 22.2450
v  -2.1091 -1.8485 17.0425
v  -0.3167 -5.2228 21.0394
v  8.5474 -6.6370 22.1950
v  6.2818 -7.0782 23.4006
v  2.2199 -9.9981 22.1950
# 166 vertices

vn 1.0000 0.0000 0.0097
vn 0.5000 0.8660 0.0097
vn 0.5000 0.8660 0.0059
vn 1.0000 -0.0000 0.0059
vn -0.5000 0.8660 0.0097
vn -0.5000 0.8660 0.0059
vn -1.0000 -0.0000 0.0097
vn -1.0000 -0.0000 0.0059
vn -0.5000 -0.8660 0.0097
vn -0.5000 -0.8660 0.0059
vn 0.5000 -0.8660 0.0097
vn 0.5000 -0.8660 0.0059
vn 0.5000 0.8660 0.0025
vn 1.0000 0.0000 0.0025
vn -0.5000 0.8660 0.0025
vn -1.0000 -0.0000 0.0025
vn -0.5000 -0.8660 0.0025
vn 0.5000 -0.8660 0.0025
vn 0.5000 0.8660 0.0087
vn 1.0000 -0.0000 0.0087
vn -0.5000 0.8660 0.0087
vn -1.0000 -0.0000 0.0087
vn -0.5000 -0.8660 0.0087
vn 0.5000 -0.8660 0.0087
vn 0.4999 0.8659 0.0198
vn 0.9998 -0.0000 0.0198
vn -0.4999 0.8659 0.0198
vn -0.9998 -0.0000 0.0198
vn -0.4999 -0.8659 0.0198
vn 0.4999 -0.8659 0.0198
vn -0.0000 -0.0000 1.0000
vn -0.3433 -0.4747 0.8105
vn -0.2748 -0.6950 0.6644
vn 0.1413 -0.6863 0.7134
vn 0.0035 -0.4835 0.8753
vn 0.4214 -0.6178 0.6639
vn 0.3383 -0.4371 0.8334
vn -0.4572 -0.2624 0.8498
vn -0.2001 -0.2706 0.9416
vn 0.2573 -0.2020 0.9450
vn -0.1058 0.5762 0.8105
vn -0.3124 0.6790 0.6644
vn -0.5937 0.3722 0.7134
vn -0.3518 0.3317 0.8753
vn -0.7377 0.1224 0.6639
vn -0.5497 0.0576 0.8334
vn 0.1264 0.5117 0.8498
vn -0.0573 0.3317 0.9416
vn -0.3238 -0.0463 0.9450
vn 0.0593 0.5828 0.8105
vn -0.1103 0.7392 0.6644
vn -0.4661 0.5232 0.7134
vn -0.2452 0.4167 0.8753
vn -0.6742 0.3236 0.6639
vn -0.5118 0.2088 0.8334
vn 0.2643 0.4561 0.8498
vn 0.0376 0.3345 0.9416
vn -0.3238 0.0459 0.9450
vn -0.5601 -0.1718 0.8105
vn -0.6382 -0.3889 0.6644
vn -0.3010 -0.6328 0.7134
vn -0.2887 -0.3879 0.8753
vn -0.0362 -0.7469 0.6639
vn 0.0065 -0.5527 0.8334
vn -0.5229 0.0663 0.8498
vn -0.3228 -0.0953 0.9416
vn 0.0835 -0.3162 0.9450
vn 0.3802 -0.4457 0.8105
vn 0.6105 -0.4311 0.6644
vn 0.7003 -0.0248 0.7134
vn 0.4707 -0.1108 0.8753
vn 0.6998 0.2636 0.6639
vn 0.5046 0.2256 0.8334
vn 0.1470 -0.5062 0.8498
vn 0.2157 -0.2584 0.9416
vn 0.2570 0.2023 0.9450
vn 0.1257 -0.5722 0.8105
vn 0.3357 -0.6677 0.6644
vn 0.6062 -0.3515 0.7134
vn 0.3631 -0.3193 0.8753
vn 0.7415 -0.0968 0.6639
vn 0.5514 -0.0385 0.8334
vn -0.1086 -0.5158 0.8498
vn 0.0687 -0.3295 0.9416
vn 0.3220 0.0575 0.9450
vn 0.3889 0.1281 0.9123
vn 0.3873 0.3901 0.8354
vn -0.0207 0.4748 0.8799
vn 0.0511 0.2069 0.9770
vn -0.3047 0.4965 0.8128
vn -0.2810 0.2610 0.9235
vn 0.4442 -0.1086 0.8893
vn 0.1910 -0.0606 0.9797
vn -0.2683 -0.0084 0.9633
vn -0.5644 -0.1567 0.8105
vn -0.6484 -0.3717 0.6644
vn -0.3178 -0.6245 0.7134
vn -0.2990 -0.3800 0.8753
vn -0.0562 -0.7457 0.6639
vn -0.0083 -0.5527 0.8334
vn -0.5210 0.0803 0.8498
vn -0.3253 -0.0866 0.9416
vn 0.0750 -0.3183 0.9450
vn -0.1800 0.3678 0.9123
vn -0.4394 0.3304 0.8354
vn -0.4675 -0.0854 0.8799
vn -0.2120 0.0223 0.9770
vn -0.4502 -0.3697 0.8128
vn -0.2202 -0.3140 0.9235
vn 0.0469 0.4549 0.8893
vn 0.0340 0.1975 0.9797
vn 0.0449 -0.2646 0.9633
vn 0.3835 -0.1435 0.9123
vn 0.5462 0.0618 0.8354
vn 0.2810 0.3832 0.8799
vn 0.1694 0.1294 0.9770
vn 0.0731 0.5779 0.8128
vn -0.0557 0.3794 0.9235
vn 0.2785 -0.3627 0.8893
vn 0.1110 -0.1668 0.9797
vn -0.2145 0.1614 0.9633
vn 0.5708 -0.1319 0.8105
vn 0.7472 0.0168 0.6644
vn 0.5775 0.3969 0.7134
vn 0.4442 0.1911 0.8753
vn 0.4055 0.6283 0.6639
vn 0.2713 0.4816 0.8334
vn 0.4194 -0.3193 0.8498
vn 0.3271 -0.0792 0.9416
vn 0.0861 0.3155 0.9450
vn 0.5034 -0.2996 0.8105
vn 0.7168 -0.2117 0.6644
vn 0.6710 0.2019 0.7134
vn 0.4813 0.0465 0.8753
vn 0.5777 0.4748 0.6639
vn 0.4052 0.3759 0.8334
vn 0.3021 -0.4320 0.8498
vn 0.2874 -0.1752 0.9416
vn 0.1782 0.2742 0.9450
vn -0.3294 -0.2432 0.9123
vn -0.2460 -0.4916 0.8354
vn 0.1680 -0.4445 0.8799
vn 0.0161 -0.2125 0.9770
vn 0.4446 -0.3764 0.8128
vn 0.3485 -0.1602 0.9235
vn -0.4559 -0.0356 0.8893
vn -0.2004 -0.0021 0.9797
vn 0.2523 0.0918 0.9633
vn -0.3938 0.1120 0.9123
vn -0.5394 -0.1058 0.8354
vn -0.2491 -0.4047 0.8799
vn -0.1583 -0.1427 0.9770
vn -0.0262 -0.5819 0.8128
vn 0.0862 -0.3737 0.9235
vn -0.3069 0.3390 0.8893
vn -0.1241 0.1573 0.9797
vn 0.2268 -0.1435 0.9633
vn 0.0805 0.5802 0.8105
vn -0.0834 0.7427 0.6644
vn -0.4468 0.5398 0.7134
vn -0.2299 0.4254 0.8753
vn -0.6620 0.3479 0.6639
vn -0.5038 0.2273 0.8334
vn 0.2807 0.4462 0.8498
vn 0.0498 0.3329 0.9416
vn -0.3219 0.0577 0.9450
# 166 vertex normals

vt 0.2773 0.0227 0.0000
vt 0.2041 0.0227 0.0000
vt 0.2041 0.3365 0.0000
vt 0.2773 0.3365 0.0000
vt 0.2050 0.0231 0.0000
vt 0.2782 0.0231 0.0000
vt 0.2782 0.3379 0.0000
vt 0.2050 0.3379 0.0000
vt 0.3515 0.0231 0.0000
vt 0.3515 0.3379 0.0000
vt 0.4247 0.0231 0.0000
vt 0.4247 0.3379 0.0000
vt 0.4238 0.0227 0.0000
vt 0.3505 0.0227 0.0000
vt 0.3505 0.3365 0.0000
vt 0.4238 0.3365 0.0000
vt 0.2041 0.6503 0.0000
vt 0.2773 0.6503 0.0000
vt 0.2782 0.6527 0.0000
vt 0.2050 0.6527 0.0000
vt 0.3515 0.6527 0.0000
vt 0.4247 0.6527 0.0000
vt 0.3505 0.6503 0.0000
vt 0.4238 0.6503 0.0000
vt 0.8059 0.0202 0.0000
vt 0.8792 0.0202 0.0000
vt 0.8792 0.3347 0.0000
vt 0.8059 0.3347 0.0000
vt 0.8783 0.0193 0.0000
vt 0.8050 0.0193 0.0000
vt 0.8050 0.3341 0.0000
vt 0.8783 0.3341 0.0000
vt 0.7317 0.0193 0.0000
vt 0.7317 0.3341 0.0000
vt 0.6585 0.0193 0.0000
vt 0.6585 0.3341 0.0000
vt 0.6595 0.0202 0.0000
vt 0.7327 0.0202 0.0000
vt 0.7327 0.3347 0.0000
vt 0.6595 0.3347 0.0000
vt 0.8792 0.6491 0.0000
vt 0.8059 0.6491 0.0000
vt 0.8050 0.6488 0.0000
vt 0.8783 0.6488 0.0000
vt 0.7317 0.6488 0.0000
vt 0.6585 0.6488 0.0000
vt 0.7327 0.6491 0.0000
vt 0.6595 0.6491 0.0000
vt 0.7693 0.9636 0.0000
vt 0.7684 0.9636 0.0000
vt 0.0000 0.5000 0.0000
vt 0.0000 0.0000 0.0000
vt 0.6445 0.0000 0.0000
vt 0.5000 0.5000 0.0000
vt 1.0000 0.0000 0.0000
vt 1.0000 0.5000 0.0000
vt 0.0000 1.0000 0.0000
vt 0.3081 1.0000 0.0000
vt 1.0000 1.0000 0.0000
# 59 texture coords

g bamboo_01
usemtl 01___Default
s 1
f 1/1/1 2/2/2 3/3/3 4/4/4 
f 2/5/2 5/6/5 6/7/6 3/8/3 
f 5/6/5 7/9/7 8/10/8 6/7/6 
f 7/9/7 9/11/9 10/12/10 8/10/8 
f 9/13/9 11/14/11 12/15/12 10/16/10 
f 11/14/11 1/1/1 4/4/4 12/15/12 
f 4/4/4 3/3/3 13/17/13 14/18/14 
f 3/8/3 6/7/6 15/19/15 13/20/13 
f 6/7/6 8/10/8 16/21/16 15/19/15 
f 8/10/8 10/12/10 17/22/17 16/21/16 
f 10/16/10 12/15/12 18/23/18 17/24/17 
f 12/15/12 4/4/4 14/18/14 18/23/18 
f 14/25/14 13/26/13 19/27/19 20/28/20 
f 13/29/13 15/30/15 21/31/21 19/32/19 
f 15/30/15 16/33/16 22/34/22 21/31/21 
f 16/33/16 17/35/17 23/36/23 22/34/22 
f 17/37/17 18/38/18 24/39/24 23/40/23 
f 18/38/18 14/25/14 20/28/20 24/39/24 
f 20/28/20 19/27/19 25/41/25 26/42/26 
f 19/32/19 21/31/21 27/43/27 25/44/25 
f 21/31/21 22/34/22 28/45/28 27/43/27 
f 22/34/22 23/36/23 29/46/29 28/45/28 
f 23/40/23 24/39/24 30/47/30 29/48/29 
f 24/39/24 20/28/20 26/42/26 30/47/30 
f 26/42/26 25/41/25 31/49/31 
f 25/44/25 27/43/27 31/50/31 
f 27/43/27 28/45/28 31/50/31 
f 28/45/28 29/46/29 31/50/31 
f 29/48/29 30/47/30 31/49/31 
f 30/47/30 26/42/26 31/49/31 
usemtl 02___Default
f 32/51/32 33/52/33 34/53/34 35/54/35 
f 35/54/35 34/53/34 36/55/36 37/56/37 
f 38/57/38 32/51/32 35/54/35 39/58/39 
f 39/58/39 35/54/35 37/56/37 40/59/40 
f 41/51/41 42/52/42 43/53/43 44/54/44 
f 44/54/44 43/53/43 45/55/45 46/56/46 
f 47/57/47 41/51/41 44/54/44 48/58/48 
f 48/58/48 44/54/44 46/56/46 49/59/49 
f 50/51/50 51/52/51 52/53/52 53/54/53 
f 53/54/53 52/53/52 54/55/54 55/56/55 
f 56/57/56 50/51/50 53/54/53 57/58/57 
f 57/58/57 53/54/53 55/56/55 58/59/58 
f 59/51/59 60/52/60 61/53/61 62/54/62 
f 62/54/62 61/53/61 63/55/63 64/56/64 
f 65/57/65 59/51/59 62/54/62 66/58/66 
f 66/58/66 62/54/62 64/56/64 67/59/67 
f 68/51/68 69/52/69 70/53/70 71/54/71 
f 71/54/71 70/53/70 72/55/72 73/56/73 
f 74/57/74 68/51/68 71/54/71 75/58/75 
f 75/58/75 71/54/71 73/56/73 76/59/76 
f 77/51/77 78/52/78 79/53/79 80/54/80 
f 80/54/80 79/53/79 81/55/81 82/56/82 
f 83/57/83 77/51/77 80/54/80 84/58/84 
f 84/58/84 80/54/80 82/56/82 85/59/85 
f 86/51/86 87/52/87 88/53/88 89/54/89 
f 89/54/89 88/53/88 90/55/90 91/56/91 
f 92/57/92 86/51/86 89/54/89 93/58/93 
f 93/58/93 89/54/89 91/56/91 94/59/94 
f 95/51/95 96/52/96 97/53/97 98/54/98 
f 98/54/98 97/53/97 99/55/99 100/56/100 
f 101/57/101 95/51/95 98/54/98 102/58/102 
f 102/58/102 98/54/98 100/56/100 103/59/103 
f 104/51/104 105/52/105 106/53/106 107/54/107 
f 107/54/107 106/53/106 108/55/108 109/56/109 
f 110/57/110 104/51/104 107/54/107 111/58/111 
f 111/58/111 107/54/107 109/56/109 112/59/112 
f 113/51/113 114/52/114 115/53/115 116/54/116 
f 116/54/116 115/53/115 117/55/117 118/56/118 
f 119/57/119 113/51/113 116/54/116 120/58/120 
f 120/58/120 116/54/116 118/56/118 121/59/121 
f 122/51/122 123/52/123 124/53/124 125/54/125 
f 125/54/125 124/53/124 126/55/126 127/56/127 
f 128/57/128 122/51/122 125/54/125 129/58/129 
f 129/58/129 125/54/125 127/56/127 130/59/130 
f 131/51/131 132/52/132 133/53/133 134/54/134 
f 134/54/134 133/53/133 135/55/135 136/56/136 
f 137/57/137 131/51/131 134/54/134 138/58/138 
f 138/58/138 134/54/134 136/56/136 139/59/139 
f 140/51/140 141/52/141 142/53/142 143/54/143 
f 143/54/143 142/53/142 144/55/144 145/56/145 
f 146/57/146 140/51/140 143/54/143 147/58/147 
f 147/58/147 143/54/143 145/56/145 148/59/148 
f 149/51/149 150/52/150 151/53/151 152/54/152 
f 152/54/152 151/53/151 153/55/153 154/56/154 
f 155/57/155 149/51/149 152/54/152 156/58/156 
f 156/58/156 152/54/152 154/56/154 157/59/157 
f 158/51/158 159/52/159 160/53/160 161/54/161 
f 161/54/161 160/53/160 162/55/162 163/56/163 
f 164/57/164 158/51/158 161/54/161 165/58/165 
f 165/58/165 161/54/161 163/56/163 166/59/166 
# 84 polygons - 6 triangles

